<svg width="135" height="271" viewBox="0 0 135 271" fill="none" xmlns="http://www.w3.org/2000/svg">
<path d="M130.012 270.439L130.029 270.56H89.2168C84.0376 270.56 78.5569 271.024 73.4309 270.508C73.289 267.392 73.8921 264.001 73.9985 260.817C74.1759 254.551 74.2114 248.303 74.1936 242.037C74.1581 227.062 73.8921 212.052 72.9698 197.093C72.7037 192.807 72.4022 188.504 71.8523 184.235C71.5686 181.963 71.4267 179.26 70.3092 177.143C69.7416 176.007 68.9967 174.888 67.7551 174.372C66.0169 173.666 63.9062 174.544 62.7533 175.921C61.6181 177.315 61.2456 179.071 60.9264 180.792C58.1062 195.32 59.1527 210.881 59.2236 225.564C59.2768 240.092 58.5142 256.049 58.3368 270.56C57.716 270.56 27.1375 270.267 14.6684 270.439H0V0.379127C18.4287 0.379127 36.7332 1.22258 55.02 0.00043379C55.5698 -0.0512062 56.9001 0.964381 56.9533 1.36029C57.3967 5.16443 57.308 37.9042 57.379 44.9961C57.6273 62.9496 57.8579 80.817 57.7692 98.7361C57.6983 113.608 57.9998 128.05 59.3478 142.837C59.5252 144.696 59.8799 146.606 61.0683 148.121C62.2567 149.636 64.5625 150.548 66.4248 149.791C70.3979 148.19 70.3447 140.651 70.6817 137.191C71.1783 132.268 71.4444 127.327 71.6572 122.387C72.1893 110.458 72.349 98.5124 72.2958 86.5663C72.2958 84.8278 72.4909 58.2504 71.0719 58.2504H127.919L109.65 143.112L134.02 270.422H129.994L130.012 270.439Z" fill="#191919"/>
</svg>
